<?xml version="1.0"?><svg width="744.09448819" height="1052.3622047" xmlns="http://www.w3.org/2000/svg">
 <title>flying bird</title>

 <metadata id="metadata7">image/svg+xmlFlying birdFlying bird animal silhouette</metadata>
 <g>
  <title>Layer 1</title>
  <g id="layer1">
   <path stroke="#000000" d="m334.692688,640.38324c-14.888428,-10.684387 -26.514771,-19.650635 -33.788513,-26.057678c-2.767944,-2.438171 -5.589844,-4.433472 -6.270905,-4.434082c-0.681061,-0.000549 -4.364746,-2.360779 -8.185944,-5.244873c-3.821198,-2.884155 -11.450989,-7.490417 -16.955048,-10.236206c-5.504089,-2.745789 -12.871429,-7.283508 -16.371887,-10.08374c-13.181381,-10.544739 -34.934875,-29.984497 -42.340607,-37.837219c-4.22522,-4.480225 -9.550369,-10.005737 -11.833649,-12.278931c-8.800278,-8.761169 -22.664398,-25.300293 -35.203232,-41.995453c-20.050369,-26.696564 -29.504242,-47.934143 -29.535767,-66.350403c-0.020203,-11.804565 23.395798,-49.423401 38.002518,-61.052795c9.784271,-7.789886 17.926849,-15.891998 17.926849,-17.837738c0,-0.96933 0.592346,-1.762421 1.31633,-1.762421c0.723969,0 1.955887,-1.195068 2.73761,-2.655701c1.260651,-2.35556 -0.08313,-3.702728 -11.889832,-11.919708c-30.917694,-21.517395 -59.987274,-48.898926 -67.306305,-63.397827c-2.597839,-5.146301 -9.0914,-13.024857 -19.300446,-23.416931l-15.385384,-15.661255l-6.028397,0.883057c-3.315643,0.485672 -6.267693,1.604431 -6.560135,2.48613c-0.292435,0.881699 2.561272,5.018463 6.341591,9.19281c3.780312,4.174362 8.678185,11.165222 10.884163,15.535233c4.376305,8.669434 6.737701,18.009399 4.553246,18.009399c-0.740074,0 -1.736015,-1.951996 -2.213158,-4.337769c-0.477158,-2.385742 -2.636978,-7.143829 -4.799606,-10.573486c-2.162636,-3.429672 -4.379906,-7.77063 -4.927277,-9.646576c-1.069099,-3.664093 -3.192307,-6.82431 -4.5802,-6.817261c-0.470886,0.00238 -0.871986,2.750259 -0.891319,6.106369c-0.019318,3.356125 -0.792641,6.859543 -1.718498,7.785385c-1.334915,1.334961 -1.501045,0.353394 -0.802635,-4.74205c1.035896,-7.557785 0.108673,-8.070969 -3.598137,-1.991364c-2.941673,4.824707 -3.722286,2.48938 -1.29866,-3.885239c0.90303,-2.375168 0.941612,-4.19519 0.106621,-5.030182c-0.719627,-0.719635 -1.027771,-2.03978 -0.684761,-2.933655c0.343025,-0.893875 -0.625877,-2.756058 -2.153088,-4.138168c-3.905678,-3.534576 -3.482578,-5.904037 2.006008,-11.234497c3.678596,-3.572601 4.597031,-5.385071 3.978203,-7.850662c-0.564957,-2.250946 -0.072868,-3.615158 1.652222,-4.580566c2.162109,-1.209991 2.238388,-1.78299 0.636009,-4.777069c-2.113403,-3.948914 -1.091408,-6.391006 2.674553,-6.391006c2.973877,0 2.950539,0.13237 1.39566,-7.910019l-1.133636,-5.863525l8.525375,-7.097549c10.236061,-8.521713 12.129921,-11.431152 14.389107,-22.105087c1.761383,-8.322052 4.07058,-13.030975 3.980827,-8.117737c-0.083229,4.556534 -3.568825,17.617813 -6.157204,23.072433c-1.359833,2.865601 -5.768387,8.586151 -9.796837,12.712311c-6.586853,6.746689 -7.230766,7.928589 -6.394318,11.736969l0.93013,4.234802l2.133133,-3.401031c1.173218,-1.87056 5.62394,-6.842407 9.89048,-11.048523c10.048927,-9.906616 11.119171,-11.701721 16.182487,-27.142746c5.666359,-17.280075 5.50235,-16.863937 6.322945,-16.04335c0.789749,0.789749 -5.465302,23.772278 -8.295113,30.47818c-0.975365,2.31131 -5.823662,8.968323 -10.77401,14.793365c-4.950348,5.825043 -9.000648,11.147827 -9.000648,11.8284c0,0.680603 1.850861,1.237442 4.112999,1.237442c5.282738,0 12.18808,-6.348541 17.807777,-16.371887c3.203072,-5.713043 4.00103,-6.527008 3.343704,-3.410812c-0.474861,2.251129 -3.130402,7.469681 -5.901222,11.596756c-6.38578,9.511475 -6.40052,9.550262 -3.628502,9.550262c1.275398,0 5.916397,-3.330643 10.313339,-7.401443c4.396942,-4.070786 9.244484,-7.798187 10.772293,-8.283096c2.637032,-0.83696 17.752548,-22.321609 17.752548,-25.232834c0,-0.757156 0.613937,-1.376648 1.364319,-1.376648c0.750381,0 1.364319,0.337463 1.364319,0.749908c0,3.282776 -15.918564,27.313156 -20.672348,31.206635c-1.76181,1.442978 -6.262489,5.280136 -10.00148,8.527008c-5.820641,5.05455 -7.684387,5.9104 -12.961067,5.951782c-3.389603,0.026596 -7.697762,0.925751 -9.573715,1.998138c-1.875931,1.072388 -5.221924,1.971558 -7.435555,1.998154c-6.62957,0.079605 -2.35421,2.516998 11.204277,6.387527l12.44149,3.551651l11.489731,-4.809692c17.275253,-7.231567 24.318192,-8.325867 41.605774,-6.464569c8.020065,0.86348 18.051743,2.379425 22.292618,3.368759c11.432083,2.666916 38.335144,13.366989 68.440002,27.220444c10.069489,4.633698 10.857758,4.788437 14.58197,2.862579c2.165375,-1.119751 10.019012,-7.718811 17.452576,-14.664581c7.433533,-6.945755 20.82489,-17.842789 29.758545,-24.215652c33.890015,-24.175522 38.075653,-25.309189 92.645111,-25.092926c47.988129,0.190186 56.235077,1.06662 120.060455,12.759247c12.006042,2.199493 29.810486,4.969482 39.565369,6.155579c9.754883,1.186096 20.345459,2.482864 23.534607,2.881714c3.59967,0.450211 5.79834,1.423492 5.79834,2.566788c0,2.470459 -7.546753,8.693375 -11.853699,9.774353c-5.901245,1.48111 -31.881958,-0.531723 -44.765747,-3.468201c-14.530029,-3.311691 -19.929321,-3.594177 -13.302124,-0.695969c2.736145,1.196564 4.434082,2.918518 4.434082,4.49678c0,4.609161 -2.760803,5.417358 -14.325439,4.193756c-6.002991,-0.635162 -12.756409,-1.13765 -15.007538,-1.116608c-3.689362,0.034439 -3.353027,0.384369 3.410797,3.548569c4.127106,1.93071 11.18396,4.880692 15.681946,6.555511c9.680908,3.604736 14.49469,8.739456 11.535706,12.30484c-2.680237,3.229477 -11.276123,1.743713 -24.045776,-4.156219c-5.707764,-2.637161 -10.598267,-4.794815 -10.867798,-4.794815c-0.269501,0 -0.490021,1.776154 -0.490021,3.946991c0,7.424347 -10.649231,7.795181 -23.781921,0.82814c-4.950562,-2.626328 -9.476868,-4.775131 -10.058441,-4.775131c-0.581604,0 -1.033234,1.688354 -1.003662,3.751877c0.048645,3.391724 -0.459747,3.793869 -5.295685,4.18924c-2.94223,0.240555 -7.970551,-0.563644 -11.174011,-1.787064c-5.606506,-2.141129 -5.929718,-2.119202 -8.634827,0.585907c-1.545685,1.54567 -2.810303,4.053543 -2.810303,5.573044c0,1.978271 -1.162201,2.995209 -4.092987,3.58136c-4.865387,0.973083 -4.872681,1.007751 -1.273438,6.062454c1.652679,2.320938 2.640778,5.513611 2.387573,7.714386c-0.390198,3.391632 -0.930328,3.739349 -5.585754,3.595764c-4.95697,-0.152863 -5.081024,-0.047913 -3.248627,2.748657c2.979919,4.547974 4.107513,11.559601 2.223969,13.829163c-1.297668,1.563599 -1.179199,2.962616 0.561493,6.630829c2.94931,6.21521 2.77951,9.802856 -0.625092,13.207458c-2.340698,2.340698 -3.818054,2.671448 -8.527008,1.908997l-5.695801,-0.922241l5.79837,5.987518c6.109222,6.308472 7.194122,10.433014 3.670959,13.956177c-1.927002,1.927002 -1.637817,2.341034 3.069733,4.395111c23.222839,10.132996 53.06012,26.000977 74.095459,39.405243c14.997375,9.556732 34.236664,21.129089 40.113129,24.127869c10.62323,5.421112 79.568604,29.734863 84.317688,29.734863c0.930664,0 5.700073,1.194305 10.598694,2.653992c4.898621,1.459717 15.561829,4.547089 23.695923,6.86087c15.287537,4.348602 28.18689,9.994598 28.18689,12.337311c0,2.352081 -7.444458,1.458221 -24.069458,-2.890106c-32.668213,-8.544464 -81.207642,-13.409637 -92.949402,-9.316467c-5.237488,1.825806 -6.277832,4.435303 -4.260559,10.686401c1.723938,5.341858 13.975464,24.650055 19.1474,30.175964c1.770203,1.891357 7.516174,8.304199 12.76886,14.250763c5.252625,5.946594 20.299622,22.203552 33.437805,36.126556c26.272949,27.842529 31.033752,33.697876 29.028809,35.702881c-2.815552,2.815552 -8.61554,-1.923584 -27.142883,-22.178345c-45.90802,-50.188324 -85.934509,-86.038605 -123.707489,-110.800293c-6.589905,-4.319946 -14.552704,-8.761566 -17.69516,-9.87027c-8.170471,-2.882721 -26.978149,-5.973206 -41.268036,-6.781158c-48.757324,-2.756805 -74.238953,-6.279266 -96.803284,-13.381683c-7.362091,-2.317291 -8.880096,-2.041931 -6.245178,1.132935c0.989868,1.192719 1.348389,3.506805 0.850586,5.490234c-1.035187,4.124481 -4.590424,4.426331 -16.278168,1.38205c-4.32135,-1.12558 -8.105469,-2.046478 -8.409119,-2.046478c-0.30368,0 0.468323,1.778046 1.715546,3.951233c1.976501,3.443817 2.017212,4.253082 0.317078,6.301605c-1.57901,1.902588 -3.387604,2.203796 -9.493835,1.581085c-4.148773,-0.423096 -9.078125,-1.115875 -10.954071,-1.53949c-1.875916,-0.423615 -5.866577,-1.100677 -8.868103,-1.504547l-5.457275,-0.734344l5.457275,2.956207c8.020233,4.344513 10.232452,6.707825 10.232452,10.931427c0,5.352112 -3.312775,8.07193 -9.831726,8.07193l-5.543823,0l3.591278,2.82489c4.888733,3.84549 2.83728,7.554962 -5.31311,9.607239c-6.783478,1.70813 -6.711578,1.626953 -4.532227,5.116669c2.140137,3.42688 0.410828,9.360046 -3.048065,10.457855l-2.842133,0.902069l3.032562,3.228027c2.384308,2.537964 2.865692,4.256287 2.251953,8.038361c-0.717316,4.420258 -0.28833,5.213776 5.289246,9.78421c7.087006,5.807251 9.064056,10.934143 5.282715,13.699097c-1.500092,1.096893 -1.994324,2.282471 -1.224426,2.937134c0.710052,0.603821 5.029938,4.260834 9.599701,8.126709c4.598328,3.889984 9.777069,9.83197 11.596771,13.305878c3.061157,5.843872 3.127625,6.396057 0.963043,8.003601c-2.093964,1.555115 -1.517883,2.52533 5.79837,9.765259c4.467834,4.421204 8.123352,8.750061 8.123352,9.619629c0,0.869568 0.920929,2.345398 2.046478,3.27948c1.999359,1.659363 2.895569,6.821655 1.184296,6.821655c-0.474213,0 -3.083496,-1.331177 -5.79837,-2.958191l-4.936188,-2.95813l4.092987,4.603821c2.251129,2.532104 7.930847,8.621338 12.621582,13.531677c5.670563,5.935974 8.813995,10.447876 9.380157,13.463806c1.147827,6.114441 -0.966827,8.122559 -5.933929,5.63501c-2.083893,-1.04364 -4.288544,-2.134888 -4.899231,-2.42511c-0.610657,-0.2901 1.231171,2.582764 4.092987,6.384338c8.340302,11.078979 12.256409,23.388672 7.440674,23.388672c-0.692474,0 -6.343048,-4.294189 -12.556824,-9.542542c-6.213776,-5.248413 -11.576691,-9.263672 -11.917603,-8.922729c-0.778229,0.778198 10.060577,13.811523 13.47464,16.20282c4.562012,3.195374 10.808868,12.118958 10.808868,15.440369c0,1.788879 1.573364,5.629944 3.496338,8.535767c2.653839,4.010254 3.393524,6.666077 3.069702,11.021973l-0.426575,5.738647l-13.023163,-9.345825zm-194.516632,-385.967163c1.104233,-2.877563 -4.448196,-6.255234 -7.552078,-4.594101c-3.28157,1.756256 -3.180695,3.360992 0.367569,5.846283c3.161118,2.214127 6.047409,1.711075 7.184509,-1.252182zm-23.713013,-3.228027c0,-2.441498 -25.274857,-20.31723 -26.704941,-18.887161c-0.407906,0.407913 4.553429,5.105576 11.0252,10.439255c10.888496,8.973724 15.679741,11.555145 15.679741,8.447906zm-35.629166,-44.309052c3.868225,-2.14415 2.304123,-3.589005 -2.82399,-2.608719c-2.409294,0.460571 -3.399101,1.344193 -2.915977,2.60318c0.889053,2.316833 1.568993,2.31749 5.739967,0.005539z" id="path2396" fill="#000000"/>
  </g>
  <rect transform="rotate(-7.49673, 94.4709, 174.128)" id="svg_2" height="60.991456" width="93.000003" y="143.633655" x="47.970144" stroke-width="5" stroke="#ffffff" fill="#ffffff"/>
  <rect transform="rotate(14.6202, 80.9647, 193.413)" id="svg_3" height="29" width="26.18765" y="178.913909" x="67.870033" stroke-width="5" stroke="#ffffff" fill="#ffffff"/>
  <rect transform="rotate(-40.0325, 66.965, 254.087)" id="svg_4" height="64.401289" width="46" y="221.887962" x="43.964252" stroke-width="5" stroke="#ffffff" fill="#ffffff"/>
  <rect id="svg_5" height="22" width="0" y="227.637817" x="58.905518" stroke-width="5" stroke="#ffffff" fill="#ffffff"/>
  <line transform="rotate(-7.66775, 642.708, 517.165)" id="svg_7" y2="483.678198" x2="640.707402" y1="550.651339" x1="644.707402" stroke-width="5" stroke="#000000" fill="none"/>
  <line transform="rotate(6.19343, 657.301, 462.07)" id="svg_8" y2="487.691582" x2="638.421487" y1="436.449665" x1="676.182369" stroke-width="5" stroke="#000000" fill="none"/>
  <rect transform="rotate(17.7645, 590.406, 439.137)" id="svg_9" height="47" width="69" y="415.637817" x="555.905518" stroke-width="5" stroke="#000000" fill="#000000"/>
  <rect transform="rotate(35.4555, 636.442, 452.086)" id="svg_10" height="40" width="35.998476" y="432.087579" x="618.441946" stroke-width="5" stroke="#000000" fill="#000000"/>
  <rect transform="rotate(33.6901, 657.945, 447.83)" id="svg_11" height="23.8906" width="14.628236" y="435.884995" x="650.629115" stroke-width="5" stroke="#000000" fill="#000000"/>
  <rect transform="rotate(48.8146, 607.145, 483.552)" id="svg_12" height="18.742251" width="77.357747" y="474.182463" x="568.465883" stroke-width="5" stroke="#000000" fill="#000000"/>
  <rect transform="rotate(-1.20686, 621.599, 480.537)" id="svg_13" height="31.998005" width="27.294646" y="464.535953" x="607.953439" stroke-width="5" stroke="#000000" fill="#000000"/>
  <rect transform="rotate(49.8215, 630.955, 520.016)" id="svg_14" height="12.010109" width="25.237954" y="514.008075" x="618.336661" stroke-width="5" stroke="#000000" fill="#000000"/>
  <path d="m635.905518,506.637817c1,0 1,1 1,2c0,1 0,2 0,3c0,1 -0.38269,2.076111 0,3c0.541199,1.30658 1,2 2,2l1,0l0,1" id="svg_15" stroke-width="5" stroke="#000000" fill="none"/>
  <path d="m637.905518,527.637817c1,1 1.292908,1.292908 2,2c0.707092,0.707092 1.292908,0.292908 2,1c0.707092,0.707092 1,1 1,2c0,1 1,1 1,2c0,1 0,2 0,3l0,1l0,1l0,1" id="svg_16" stroke-width="5" stroke="#000000" fill="none"/>
  <path d="m628.905518,504.637817c1,0 2.292908,-0.707092 3,0c0.707092,0.707092 1,1 2,1c1,0 1.458801,0.693451 2,2c0.38269,0.923889 0,2 0,3c0,1 1,1 1,2l0,1" id="svg_17" stroke-width="5" stroke="#000000" fill="none"/>
  <path d="m635.905518,523.637817c0,1 0.292908,1.292908 1,2c0.707092,0.707092 1,2 1,3c0,1 1,1 1,2c0,1 0,2 0,3l0,1l1,1l0,1" id="svg_18" stroke-width="5" stroke="#000000" fill="none"/>
  <path d="m93.905518,204.637817c0,1 1,1 2,1c1,0 2,0 3,0c1,0 2,0 3,0l1,0l1,0" id="svg_19" stroke-width="5" stroke="#ffffff" fill="none"/>
  <path d="m141.905518,154.637817c0,1 0,2 0,3c0,1 0,2 0,3c0,1 0,2 0,3l1,0" id="svg_20" stroke-width="5" stroke="#ffffff" fill="none"/>
 </g>
</svg>